REM DIRINDEX 1\2,1\4,1\3\5,1\3\6,1\3\7
REM DIRNAME folder01,folder02,folder03,folder04,folder05,folder06,folder07
TITLE ""
FILE "CD1Track49.mp3" MP3
  TRACK 01 AUDIO
    TITLE "0:"
    INDEX 01 00:00:00
  TRACK 02 AUDIO
    TITLE "5:cjc082_0886"
    INDEX 01 00:00:27
  TRACK 03 AUDIO
    TITLE "0:"
    INDEX 01 00:01:50
  TRACK 04 AUDIO
    TITLE "6:cjc082_0887"
    INDEX 01 00:02:28
  TRACK 05 AUDIO
    TITLE "0:"
    INDEX 01 00:03:66
  TRACK 06 AUDIO
    TITLE "5:cjc082_0888"
    INDEX 01 00:04:38
  TRACK 07 AUDIO
    TITLE "0:"
    INDEX 01 00:05:63
  TRACK 08 AUDIO
    TITLE "6:cjc082_0889"
    INDEX 01 00:06:41
  TRACK 09 AUDIO
    TITLE "0:"
    INDEX 01 00:08:19
  TRACK 10 AUDIO
    TITLE "5:cjc082_0890"
    INDEX 01 00:08:72
  TRACK 11 AUDIO
    TITLE "0:"
    INDEX 01 00:10:25
  TRACK 12 AUDIO
    TITLE "6:cjc082_0891"
    INDEX 01 00:10:72
  TRACK 13 AUDIO
    TITLE "0:"
    INDEX 01 00:12:16
  TRACK 14 AUDIO
    TITLE "5:cjc082_0892"
    INDEX 01 00:12:69
  TRACK 15 AUDIO
    TITLE "0:"
    INDEX 01 00:14:11
  TRACK 16 AUDIO
    TITLE "6:cjc082_0893"
    INDEX 01 00:14:62
  TRACK 17 AUDIO
    TITLE "0:"
    INDEX 01 00:16:51
  TRACK 18 AUDIO
    TITLE "5:cjc082_0894"
    INDEX 01 00:17:25
  TRACK 19 AUDIO
    TITLE "0:"
    INDEX 01 00:18:72
  TRACK 20 AUDIO
    TITLE "6:cjc082_0895"
    INDEX 01 00:19:46
  TRACK 21 AUDIO
    TITLE "0:"
    INDEX 01 00:21:33
  TRACK 22 AUDIO
    TITLE "5:cjc082_0896"
    INDEX 01 00:22:03
  TRACK 23 AUDIO
    TITLE "0:"
    INDEX 01 00:23:20
  TRACK 24 AUDIO
    TITLE "6:cjc082_0897"
    INDEX 01 00:23:67
  TRACK 25 AUDIO
    TITLE "0:"
    INDEX 01 00:25:45
  TRACK 26 AUDIO
    TITLE "5:cjc082_0898"
    INDEX 01 00:26:17
  TRACK 27 AUDIO
    TITLE "0:"
    INDEX 01 00:27:34
  TRACK 28 AUDIO
    TITLE "6:cjc082_0899"
    INDEX 01 00:28:04
  TRACK 29 AUDIO
    TITLE "0:"
    INDEX 01 00:29:33
  TRACK 30 AUDIO
    TITLE "5:cjc082_0900"
    INDEX 01 00:30:03
  TRACK 31 AUDIO
    TITLE "0:"
    INDEX 01 00:31:20
  TRACK 32 AUDIO
    TITLE "6:cjc082_0901"
    INDEX 01 00:31:73
  TRACK 33 AUDIO
    TITLE "0:"
    INDEX 01 00:34:45
  TRACK 34 AUDIO
    TITLE "5:cjc082_0902"
    INDEX 01 00:35:19
  TRACK 35 AUDIO
    TITLE "0:"
    INDEX 01 00:37:12
  TRACK 36 AUDIO
    TITLE "6:cjc082_0903"
    INDEX 01 00:37:61
  TRACK 37 AUDIO
    TITLE "0:"
    INDEX 01 00:39:23
  TRACK 38 AUDIO
    TITLE "5:cjc082_0904"
    INDEX 01 00:39:66
  TRACK 39 AUDIO
    TITLE "0:"
    INDEX 01 00:41:16
  TRACK 40 AUDIO
    TITLE "6:cjc082_0905"
    INDEX 01 00:41:67
  TRACK 41 AUDIO
    TITLE "0:"
    INDEX 01 00:43:62
  TRACK 42 AUDIO
    TITLE "5:cjc082_0906"
    INDEX 01 00:44:36
  TRACK 43 AUDIO
    TITLE "0:"
    INDEX 01 00:45:71
  TRACK 44 AUDIO
    TITLE "6:cjc082_0907"
    INDEX 01 00:46:41
  TRACK 45 AUDIO
    TITLE "0:"
    INDEX 01 00:48:34
  TRACK 46 AUDIO
    TITLE "5:cjc082_0908"
    INDEX 01 00:49:10
  TRACK 47 AUDIO
    TITLE "0:"
    INDEX 01 00:50:31
  TRACK 48 AUDIO
    TITLE "6:cjc082_0909"
    INDEX 01 00:51:03
  TRACK 49 AUDIO
    TITLE "0:"
    INDEX 01 00:53:35
  TRACK 50 AUDIO
    TITLE "5:cjc082_0910"
    INDEX 01 00:54:09
  TRACK 51 AUDIO
    TITLE "0:"
    INDEX 01 00:55:48
  TRACK 52 AUDIO
    TITLE "6:cjc082_0911"
    INDEX 01 00:56:20
  TRACK 53 AUDIO
    TITLE "0:"
    INDEX 01 00:58:01
  TRACK 54 AUDIO
    TITLE "5:cjc082_0912"
    INDEX 01 00:58:44
  TRACK 55 AUDIO
    TITLE "0:"
    INDEX 01 01:00:06
  TRACK 56 AUDIO
    TITLE "6:cjc082_0913"
    INDEX 01 01:00:59
  TRACK 57 AUDIO
    TITLE "0:"
    INDEX 01 01:02:32
  TRACK 58 AUDIO
    TITLE "5:cjc082_0914"
    INDEX 01 01:03:08
  TRACK 59 AUDIO
    TITLE "0:"
    INDEX 01 01:04:17
  TRACK 60 AUDIO
    TITLE "6:cjc082_0915"
    INDEX 01 01:04:74
  TRACK 61 AUDIO
    TITLE "0:"
    INDEX 01 01:08:40
  TRACK 62 AUDIO
    TITLE "7:cjc082_0916"
    INDEX 01 01:10:06
  TRACK 63 AUDIO
    TITLE "0:"
    INDEX 01 01:20:55
